<svg viewBox="0 0 159 237" fill="none" xmlns="http://www.w3.org/2000/svg">
<path d="M157.444 225.546C156.299 216.013 145.764 214.932 139.639 215.588C133.118 191.034 155.864 154.437 157.202 145.768C157.5 143.836 157.881 139.832 158.127 134.5C158.258 131.67 158.35 128.466 158.371 125C158.405 119.511 158.261 113.363 157.809 107C157.645 104.682 157.439 102.335 157.187 99.9811C155.418 83.5 150.069 67.0299 149.689 54.8296C148.81 26.6626 107.901 -4.4324 101.071 0.524604C94.3025 8.0086 110.819 18.1096 102.125 26.7696C93.7266 35.1366 91.5366 40.7596 85.3006 50.2296C69.3246 74.4846 112.619 74.7876 112.619 74.7876C112.619 74.7876 78.7366 99.8996 71.1976 112.556C64.2546 124.212 61.3436 137.252 52.9656 148.244C33.8716 173.295 38.1746 216.973 38.1746 216.973C38.1746 216.973 2.00456 205.134 21.9106 163.84C37.0636 132.407 44.5276 86.0206 10.4366 97.9506C-2.75245 102.567 13.3856 112.276 16.1706 115.386C25.4886 125.786 17.6116 143.282 11.9966 153.398C-3.04044 180.489 -8.49944 208.873 23.1506 226.376C37.2136 234.152 56.2056 236.076 75.3206 236.358L123.961 236.498C139.985 237.295 158.11 234.299 157.444 225.546Z" fill="#F2994A"/>
</svg>
